<?xml version="1.0" standalone="no"?>
<svg viewBox="0 0 200 200" xmlns="http://www.w3.org/2000/svg">
  <path fill="#FF0066" d="M34.3,-63.6C39.8,-49.8,36.5,-32.5,44.4,-19.1C52.4,-5.7,71.6,3.7,70.5,10C69.3,16.3,47.8,19.5,34.1,22.2C20.3,24.9,14.5,27,7.3,32.7C0.1,38.5,-8.3,47.8,-17.8,49.9C-27.3,52,-37.9,47.1,-45.6,39C-53.2,31,-57.8,20,-59.8,8.4C-61.8,-3.2,-61.1,-15.4,-56.3,-25.7C-51.6,-35.9,-42.7,-44.3,-32.6,-56C-22.5,-67.8,-11.3,-82.9,1.5,-85.3C14.4,-87.8,28.7,-77.4,34.3,-63.6Z" transform="translate(100 100)" />
</svg>
